<svg width="76" height="76" viewBox="0 0 76 76" fill="none" xmlns="http://www.w3.org/2000/svg">
<rect width="76" height="76" rx="4.71" fill="#17BF5F"/>
<path d="M34.6953 19.4472L35.4035 20.5515C37.9938 18.9288 41.2835 18.9288 43.8738 20.5515L44.582 19.4472C41.569 17.5176 37.7084 17.5176 34.6953 19.4472Z" fill="white"/>
<path d="M31.7705 27.1799H30.459C30.4571 28.3931 30.6974 29.5946 31.1659 30.7138L32.3764 30.2075C31.9748 29.2488 31.7688 28.2195 31.7705 27.1799Z" fill="white"/>
<path d="M42.664 34.4436C41.7063 34.8451 40.678 35.0508 39.6396 35.0489V36.3604C40.8522 36.3627 42.053 36.1226 43.1715 35.6541L42.664 34.4436Z" fill="white"/>
<path d="M47.5086 27.1799C47.5104 28.2187 47.3046 29.2474 46.9033 30.2056L48.1138 30.7118C48.5822 29.5933 48.8223 28.3925 48.8201 27.1799H47.5086Z" fill="white"/>
<path d="M39.6395 20.6223C36.0179 20.6223 33.082 23.5582 33.082 27.1798C33.082 30.8014 36.0179 33.7373 39.6395 33.7373C43.2595 33.7333 46.1931 30.7998 46.197 27.1798C46.197 23.5583 43.2611 20.6223 39.6395 20.6223ZM39.6395 32.4258C36.7423 32.4258 34.3935 30.0771 34.3935 27.1798C34.3935 24.2825 36.7423 21.9338 39.6395 21.9338C42.5368 21.9338 44.8855 24.2825 44.8855 27.1798C44.8822 30.0758 42.5355 32.4226 39.6395 32.4258Z" fill="white"/>
<path d="M41.0822 26.9707L40.2953 26.7084V25.0257C40.6606 25.1532 40.9172 25.4829 40.9511 25.8684H42.2626C42.204 24.7617 41.3875 23.8428 40.2953 23.6545V23.2454H38.9838V23.6545C37.8917 23.8428 37.0752 24.7617 37.0166 25.8684C37.0423 26.5762 37.5176 27.1885 38.197 27.389L38.9838 27.6513V29.3327C38.619 29.2054 38.3624 28.8763 38.3281 28.4914H37.0166C37.0752 29.598 37.8917 30.5169 38.9838 30.7052V31.1143H40.2953V30.7052C41.3875 30.5169 42.204 29.598 42.2626 28.4914C42.2369 27.7835 41.7616 27.1712 41.0822 26.9707ZM38.9838 26.2716L38.6101 26.1457C38.4442 26.09 38.3281 25.9759 38.3281 25.8684C38.362 25.4829 38.6186 25.1532 38.9838 25.0257V26.2716ZM40.2953 29.334V28.0881L40.6691 28.214C40.835 28.2697 40.9511 28.3838 40.9511 28.4914C40.9172 28.8768 40.6606 29.2065 40.2953 29.334Z" fill="white"/>
<path d="M57.1528 45.0772L54.9934 42.9178L57.1528 40.7584C57.4088 40.5024 57.4088 40.0873 57.1528 39.8312L48.6281 31.3065C48.372 31.0505 47.9569 31.0505 47.7008 31.3065L39.3118 39.6955L30.2671 30.6507C30.011 30.3947 29.5959 30.3947 29.3399 30.6507L20.8151 39.1755C20.5591 39.4315 20.5591 39.8466 20.8151 40.1027L25.5975 44.8851H18V46.1966H26.5247C26.6136 46.1968 26.7015 46.1787 26.7831 46.1435L31.2494 44.2293H40.9512V46.8523H33.738C33.3758 46.8523 33.0822 47.1458 33.0822 47.5081C33.0822 47.7639 33.231 47.9964 33.4632 48.1035L41.9879 52.038C42.2025 52.1355 42.4528 52.1105 42.6437 51.9724L54.0006 43.7769L55.7272 45.5034L42.6758 56.6885H39.1013L26.7516 52.139C26.679 52.1122 26.6022 52.0984 26.5247 52.0983H18V53.4098H26.4074L38.7571 57.9594C38.8297 57.9863 38.9065 58 38.984 58H42.9185C43.0749 58.0002 43.2262 57.9441 43.3447 57.842L57.1154 46.0385C57.3904 45.8029 57.4224 45.3889 57.1867 45.1139C57.1759 45.1013 57.1646 45.089 57.1528 45.0772ZM31.115 42.9178C31.0261 42.9176 30.9382 42.9356 30.8566 42.9709L30.6973 43.0365C31.3447 41.3563 33.2317 40.5191 34.9119 41.1666C35.7298 41.4817 36.3863 42.113 36.7334 42.9178H31.115ZM38.1348 42.9178C37.5607 40.9693 35.7693 39.6335 33.738 39.6391C31.4174 39.653 29.4674 41.3862 29.1812 43.689L27.1333 44.5664L22.206 39.6391L29.8035 32.0416L40.6797 42.9178H38.1348ZM42.1899 50.6865L36.7236 48.1638H41.607C41.9691 48.1638 42.2627 47.8702 42.2627 47.5081V44.5008L45.8234 48.0615L42.1899 50.6865ZM42.3243 42.708C42.5727 41.3082 43.7919 40.2898 45.2136 40.2948C46.8397 40.2919 48.1603 41.6076 48.1633 43.2337C48.1659 44.6565 47.1507 45.8776 45.7513 46.1349L42.3243 42.708ZM46.8156 47.1979C47.0787 47.0912 47.3302 46.9581 47.5668 46.8012L46.9002 47.2825L46.8156 47.1979ZM53.6406 42.4162L47.8621 46.59C49.7031 45.1229 50.0062 42.4412 48.539 40.6002C47.072 38.7593 44.3902 38.4562 42.5493 39.9233C41.9795 40.3774 41.5356 40.9699 41.26 41.6444L40.239 40.6227L48.1644 32.6973L55.7619 40.2948L53.6406 42.4162Z" fill="white"/>
</svg>
