<svg width="76" height="76" viewBox="0 0 76 76" fill="none" xmlns="http://www.w3.org/2000/svg">
<rect width="76" height="76" rx="4.71" fill="#1C75BB"/>
<path d="M53.4795 18H30.112C28.7748 18 27.6868 19.088 27.6868 20.4252V25.8525C23.254 27.1211 20 31.21 20 36.0448C20 40.8795 23.2539 44.9685 27.6868 46.2371V55.5748C27.6868 56.912 28.7748 58 30.112 58H49.2077C49.4343 58 49.6515 57.91 49.8118 57.7498L55.6545 51.9071C55.8147 51.7469 55.9046 51.5296 55.9046 51.303V20.4252C55.9046 19.088 54.8167 18 53.4795 18ZM30.112 19.7084H53.4795C53.8747 19.7084 54.1963 20.0299 54.1963 20.4252V23.0032H29.3951V20.4252C29.3951 20.0299 29.7167 19.7084 30.112 19.7084ZM21.7084 36.0447C21.7084 31.1422 25.6968 27.1538 30.5992 27.1538C35.5017 27.1538 39.4901 31.1422 39.4901 36.0447C39.4901 40.9471 35.5017 44.9356 30.5992 44.9356C25.6968 44.9356 21.7084 40.9471 21.7084 36.0447ZM29.3951 55.5747V46.5752C29.7905 46.6201 30.1921 46.644 30.5993 46.644C33.783 46.644 36.643 45.2328 38.5875 43.0034H43.8213C44.2931 43.0034 44.6755 42.6209 44.6755 42.1492C44.6755 41.6774 44.2931 41.295 43.8213 41.295H39.8041C40.5471 39.9974 41.0231 38.5287 41.1582 36.9637H43.8213C44.293 36.9637 44.6754 36.5813 44.6754 36.1095C44.6754 35.6378 44.293 35.2553 43.8213 35.2553H41.169C41.0535 33.6939 40.5979 32.2257 39.8766 30.9241H43.8212C44.2929 30.9241 44.6754 30.5417 44.6754 30.07C44.6754 29.5982 44.2929 29.2158 43.8212 29.2158H38.6982C36.7524 26.9117 33.844 25.4454 30.599 25.4454C30.1919 25.4454 29.7903 25.4693 29.3949 25.5142V24.7115H54.196V50.4487H50.7785C49.4412 50.4487 48.3534 51.5367 48.3534 52.8738V56.2915H30.112C29.7167 56.2915 29.3951 55.97 29.3951 55.5747ZM50.062 55.0834V52.8739C50.062 52.4786 50.3836 52.1571 50.7788 52.1571H52.9883L50.062 55.0834Z" fill="white"/>
<path d="M47.1774 30.9242H50.0141C50.4859 30.9242 50.8683 30.5418 50.8683 30.07C50.8683 29.5983 50.4859 29.2158 50.0141 29.2158H47.1774C46.7057 29.2158 46.3232 29.5983 46.3232 30.07C46.3232 30.5418 46.7057 30.9242 47.1774 30.9242Z" fill="white"/>
<path d="M47.1774 36.9637H50.0141C50.4859 36.9637 50.8683 36.5813 50.8683 36.1096C50.8683 35.6378 50.4859 35.2554 50.0141 35.2554H47.1774C46.7057 35.2554 46.3232 35.6378 46.3232 36.1096C46.3232 36.5813 46.7057 36.9637 47.1774 36.9637Z" fill="white"/>
<path d="M47.1774 43.0033H50.0141C50.4859 43.0033 50.8683 42.6209 50.8683 42.1491C50.8683 41.6774 50.4859 41.2949 50.0141 41.2949H47.1774C46.7057 41.2949 46.3232 41.6774 46.3232 42.1491C46.3232 42.6209 46.7057 43.0033 47.1774 43.0033Z" fill="white"/>
<path d="M50.0148 49.0428C50.4866 49.0428 50.869 48.6604 50.869 48.1887C50.869 47.7169 50.4866 47.3345 50.0148 47.3345H42.0241C41.5524 47.3345 41.1699 47.7169 41.1699 48.1887C41.1699 48.6604 41.5524 49.0428 42.0241 49.0428H50.0148Z" fill="white"/>
<path d="M37.2314 31.7356L36.1893 30.6934C35.9086 30.4129 35.5355 30.2583 35.1386 30.2583C34.7417 30.2583 34.3686 30.4129 34.088 30.6934L28.622 36.1594L27.1111 34.6485C26.8305 34.368 26.4574 34.2134 26.0605 34.2134C25.6637 34.2134 25.2905 34.368 25.01 34.6486L23.9676 35.6908C23.3884 36.2701 23.3884 37.2127 23.9677 37.792L27.5713 41.3956C27.852 41.6763 28.2251 41.8309 28.622 41.8309H28.6221C29.0189 41.8309 29.3921 41.6763 29.6726 41.3957L37.2315 33.8368C37.8107 33.2575 37.8107 32.3149 37.2314 31.7356ZM28.6219 40.0303L25.333 36.7414L26.0604 36.014L28.0179 37.9714C28.3515 38.305 28.8923 38.305 29.226 37.9714L35.1386 32.0588L35.8661 32.7862L28.6219 40.0303Z" fill="white"/>
</svg>
